<?xml version="1.0" encoding="UTF-8" standalone="no"?>
<!DOCTYPE svg PUBLIC "-//W3C//DTD SVG 1.1//EN" "http://www.w3.org/Graphics/SVG/1.1/DTD/svg11.dtd">
<svg width="100%" height="100%" viewBox="0 0 500 500" version="1.1" xmlns="http://www.w3.org/2000/svg" xmlns:xlink="http://www.w3.org/1999/xlink" xml:space="preserve" xmlns:serif="http://www.serif.com/" style="fill-rule:evenodd;clip-rule:evenodd;stroke-linecap:round;stroke-miterlimit:1.5;">
    <g id="icon.svg" transform="matrix(3.125,0,0,3.125,250,250)">
        <g transform="matrix(1,0,0,1,-48,-48)">
            <clipPath id="_clip1">
                <rect x="0" y="0" width="96" height="96"/>
            </clipPath>
            <g clip-path="url(#_clip1)">
                <g transform="matrix(0.94625,0,0,1.08244,0,-124.88)">
                    <rect x="0" y="115.36" width="101.45" height="88.69" style="fill:none;fill-rule:nonzero;"/>
                    <g>
                        <path d="M55.1,183.14C51.5,183.14 48.58,185.69 48.58,188.84C48.58,191.98 51.5,194.52 55.09,194.52C58.69,194.52 61.6,191.98 61.6,188.83C61.6,185.69 58.69,183.14 55.1,183.14ZM79.65,194.29L77.93,194.29L77.93,193.09C76.689,194.033 75.169,194.536 73.61,194.52C70.01,194.52 67.11,191.98 67.11,188.83C67.11,185.69 70.01,183.14 73.61,183.14C75.27,183.14 76.78,183.69 77.93,184.58L77.93,180.61L79.65,180.61L79.65,194.29ZM40.95,194.29L39.23,194.29L39.23,193.05C37.984,194.017 36.447,194.535 34.87,194.52C31.27,194.52 28.36,191.98 28.36,188.83C28.36,185.69 31.28,183.14 34.87,183.14C36.447,183.125 37.984,183.643 39.23,184.61L39.23,180.61L40.94,180.61L40.94,194.29L40.95,194.29ZM12.78,194.29L11.06,194.29L11.06,192.89C9.787,193.958 8.172,194.537 6.51,194.52C2.91,194.52 0,191.98 0,188.83C0,185.69 2.91,183.14 6.51,183.14C8.29,183.14 9.89,183.77 11.06,184.78L11.06,183.34L12.78,183.34L12.78,194.29ZM43.11,187.67C43.4,185.19 45.74,183.25 48.63,183.15L48.63,184.65C46.53,184.76 44.84,186.27 44.81,188.13L44.79,188.13L44.79,194.29L43.09,194.29L43.09,187.67L43.11,187.67ZM14.93,187.77C15.17,185.17 17.65,183.14 20.68,183.14C23.71,183.14 26.18,185.18 26.43,187.77L26.45,187.77L26.45,194.29L24.75,194.29L24.75,188.13L24.73,188.13C24.69,186.2 22.89,184.65 20.68,184.65C18.46,184.65 16.67,186.2 16.63,188.13L16.62,188.13L16.62,194.29L14.9,194.29L14.9,187.77L14.93,187.77ZM65.25,194.29L63.53,194.29L63.53,183.34L65.25,183.34L65.25,194.29ZM84,180.6L84,183.33L88,183.33L88,184.2L84,184.2L84,190.36C84.037,191.504 84.726,192.531 85.77,193C86.23,193.23 86.76,193.37 87.32,193.4L88,193.4L88,194.28L87.46,194.28C85.2,194.26 83.34,192.78 83.05,190.88L83.02,190.57L83.02,180.61L84.02,180.61L84,180.6ZM95.35,194.28L94.82,194.28L89.1,183.33L90.1,183.33L95.08,192.87L100.08,183.33L101.07,183.33L95.35,194.28ZM59.8,188.82C59.8,191.1 57.69,192.94 55.08,192.94C52.48,192.94 50.37,191.1 50.37,188.82C50.37,186.55 52.48,184.7 55.08,184.7C57.68,184.7 59.8,186.55 59.8,188.82ZM77.92,190.87L77.92,186.77C76.944,185.436 75.373,184.662 73.72,184.7C71.02,184.7 68.85,186.55 68.85,188.82C68.85,191.1 71.03,192.94 73.71,192.94C75.51,192.94 77.08,192.11 77.92,190.87ZM39.22,190.81L39.22,186.83C38.248,185.457 36.652,184.657 34.97,184.7C32.29,184.7 30.11,186.55 30.11,188.82C30.11,191.1 32.29,192.94 34.97,192.94C36.8,192.94 38.39,192.08 39.22,190.81ZM11.05,190.54L11.05,187.1C10.125,185.567 8.44,184.648 6.65,184.7C3.96,184.7 1.79,186.55 1.79,188.82C1.79,191.1 3.96,192.94 6.65,192.94C8.6,192.94 10.29,191.96 11.05,190.54ZM65.24,180.6L65.24,182.22L63.52,182.22L63.52,180.6L65.24,180.6ZM101.08,168.52L0,168.52L0,142.78L101.08,142.78L101.08,168.52ZM56.15,149.3L53.71,149.3L60.18,162L62.74,162L69.21,149.3L66.77,149.3L61.52,159.97L56.15,149.3ZM75.2,149.3L73,149.3L73,162L75.2,162L75.2,149.3ZM87.51,149.3L84.95,149.3L78.24,162L80.8,162L82.38,158.69L90.19,158.69L91.66,161.99L94.1,161.99L87.51,149.3ZM47.24,149.3L44.56,149.3L37.97,162L40.41,162L42,158.69L49.8,158.69L51.4,161.99L53.71,161.99L47.24,149.3ZM29.43,149.3L23.94,149.3L23.94,162L26.14,162L26.14,150.8L29.43,150.8C31.13,150.8 32.6,151.33 32.6,152.93C32.6,154.74 31.26,155.38 29.43,155.38L27.84,155.38L33.09,162L36.14,162L31.74,156.56C33.94,156.02 35.04,154.96 35.04,152.93C35.04,150.16 32.24,149.3 29.43,149.3ZM13.33,149.3L7.71,149.3L7.71,162L13.57,162C15.4,162 16.74,161.68 17.72,161.04C18.82,160.4 19.3,159.54 19.3,158.37C19.3,157.52 18.94,156.87 18.33,156.24C17.582,155.664 16.696,155.295 15.76,155.17C16.74,155.07 17.36,154.74 17.84,154.32C18.33,153.89 18.57,153.25 18.57,152.5C18.594,151.533 18.077,150.629 17.23,150.16C16.025,149.545 14.682,149.248 13.33,149.3ZM13.46,160.5L9.92,160.5L9.92,155.92L13.46,155.92C14.68,155.92 15.53,156.13 16.02,156.45C16.62,156.88 16.87,157.41 16.87,158.26C16.87,159.01 16.63,159.66 16.02,159.97C15.53,160.4 14.68,160.5 13.46,160.5ZM89.46,157.3L83,157.3L86.18,151.01L89.48,157.31L89.46,157.3ZM45.9,151.01L42.73,157.31L49.08,157.31L45.9,151.01ZM13.2,154.53L9.9,154.53L9.9,150.8L13.2,150.8C14.18,150.8 15.03,150.9 15.52,151.22C16.13,151.54 16.37,151.97 16.37,152.62C16.37,153.25 16.13,153.78 15.52,154.1C15.03,154.43 14.18,154.53 13.2,154.53ZM3.14,139.85L0.44,139.85L0.44,134.5L2.88,134.5C3.42,135.86 4.16,136.14 4.84,136.68C6.02,137.63 8.84,138.32 11.41,138.3C15.31,138.26 16.64,137.52 16.64,136.44C16.64,135.36 15.32,135.1 11.05,134.52L7.44,134C3.35,133.46 0.38,132.66 0.38,129.82C0.38,126.86 4.14,125 10.08,125C12.59,125 14.69,125.3 16.7,126.3C17.26,126.6 17.79,126.65 17.78,125.46L20.41,125.46L20.41,130.64L17.98,130.64C17.76,129.6 17.02,129.2 16.35,128.65C15.13,127.67 12.49,126.85 10.27,126.85C7.4,126.85 4.98,127.64 4.98,128.78C4.98,131.95 21.38,129.43 21.38,135.43C21.38,138.56 17.86,140.3 11.56,140.3C9.37,140.3 6.06,139.71 4.12,138.8C3.51,138.5 3.25,139.1 3.14,139.85ZM36.92,124.89C29.26,124.89 24.47,127.85 24.47,132.59C24.47,137.26 29.2,140.19 36.68,140.19C44.63,140.19 49.26,137.3 49.26,132.36C49.26,127.92 44.26,124.89 36.92,124.89ZM99.92,137.34C99.06,137.34 98.37,137.94 98.37,138.68C98.37,139.43 99.07,140.03 99.92,140.03C100.77,140.03 101.45,139.43 101.45,138.68C101.45,137.94 100.77,137.34 99.92,137.34ZM59.97,139.96L50,139.96L50,138.19L51.66,138.19C52.94,138.19 53.39,137.91 53.39,137.18L53.39,128.38C53.39,127.62 52.94,127.36 51.66,127.36L50,127.36L50,125.56L58.62,125.56L69.07,134.13L69.12,128.37C69.12,127.62 68.68,127.36 67.39,127.36L65.89,127.36L65.89,125.56L75.49,125.56L75.49,127.36L74.23,127.36C72.95,127.36 72.5,127.62 72.5,128.37L72.5,139.96L68.74,139.93L56.57,129.86L56.57,137.18C56.57,137.91 57.02,138.19 58.3,138.19L59.97,138.19L59.97,139.96ZM99.92,139.86C99.17,139.86 98.56,139.34 98.56,138.68C98.56,138.03 99.16,137.5 99.92,137.5C100.66,137.5 101.27,138.03 101.27,138.68C101.27,139.34 100.67,139.87 99.92,139.87L99.92,139.86ZM88.24,127.31L87.46,127.31C86.67,127.31 86.34,127.44 86.34,127.71C86.34,127.91 86.58,128.09 86.74,128.26L89.7,131.09C90.05,131.41 90.48,131.45 90.89,131.05L94.04,128.11C94.22,127.9 94.31,127.74 94.31,127.61C94.31,127.4 94.1,127.31 93.43,127.31L92.63,127.31L92.63,125.46L101.23,125.46L101.23,127.31L100.11,127.31C98.8,127.31 98.56,127.49 96.74,129.49L91.75,134.19L91.75,137.07C91.75,137.8 92.18,138.06 93.39,138.06L95.27,138.06L95.27,139.86L83.23,139.86L83.23,138.06L85.11,138.06C86.32,138.06 86.75,137.8 86.75,137.06L86.75,134.2L80.88,128.52C79.91,127.52 80.04,127.32 77.34,127.32L77.34,125.46L88.24,125.46L88.24,127.31ZM99.55,139.44L99.35,139.44L99.35,137.93L100.09,137.93C100.24,137.93 100.39,137.93 100.51,138C100.64,138.07 100.71,138.2 100.71,138.33C100.71,138.63 100.47,138.73 100.16,138.74L100.68,139.44L100.43,139.44L99.94,138.74L99.55,138.74L99.55,139.44ZM100.05,138.06L99.55,138.06L99.55,138.6L99.88,138.6C100.12,138.6 100.49,138.63 100.49,138.33C100.49,138.09 100.26,138.06 100.05,138.06ZM36.75,138.32C32.51,138.32 30.07,136.18 30.07,132.49C30.07,128.89 32.61,126.75 36.95,126.75C41.12,126.75 43.55,128.93 43.55,132.65C43.55,136.27 41.08,138.32 36.75,138.32Z" style="fill-rule:nonzero;"/>
                    </g>
                </g>
            </g>
        </g>
    </g>
    <rect x="10" y="100" width="480" height="300" style="fill:none;stroke:black;stroke-width:12.5px;"/>
    <path d="M100,430L400,430" style="fill:none;stroke:black;stroke-width:33.33px;stroke-linecap:butt;stroke-linejoin:round;"/>
</svg>
